<svg width="206" height="206" fill="none" xmlns="http://www.w3.org/2000/svg"><rect width="206" height="206" rx="15" fill="#EB5757"/><path d="M105.531 29c21.459 0 38.801 6.41 52.027 19.232l-18.422 21.662c-9.447-7.558-19.502-11.337-30.164-11.337-4.994 0-8.772.877-11.337 2.632-2.564 1.754-3.846 4.251-3.846 7.49 0 2.43.675 4.454 2.024 6.074 1.485 1.484 3.847 2.901 7.086 4.251 3.374 1.35 8.772 3.24 16.195 5.669 14.846 4.723 25.508 10.662 31.986 17.815 6.613 7.153 9.92 16.938 9.92 29.354 0 9.043-2.429 17.073-7.288 24.091-4.724 6.884-11.539 12.282-20.447 16.196-8.907 3.914-19.434 5.871-31.581 5.871-12.416 0-23.348-1.957-32.796-5.871-9.447-3.914-17.41-9.042-23.888-15.386l20.447-22.471c10.662 9.177 22.201 13.766 34.618 13.766 5.803 0 10.189-1.147 13.158-3.442 2.97-2.429 4.454-5.533 4.454-9.312 0-2.834-.675-5.196-2.024-7.086-1.215-1.889-3.442-3.644-6.681-5.263-3.239-1.62-7.963-3.374-14.171-5.264-16.33-5.128-27.735-11.269-34.213-18.422-6.478-7.288-9.717-16.331-9.717-27.128 0-8.773 2.362-16.398 7.085-22.876 4.724-6.479 11.202-11.472 19.435-14.981C85.759 30.754 95.138 29 105.53 29Z" fill="#fff"/></svg>